<svg width="24" height="25" viewBox="0 0 24 25" fill="none" xmlns="http://www.w3.org/2000/svg">
<path d="M12 2.5C6.48 2.5 2 6.98 2 12.5C2 18.02 6.48 22.5 12 22.5C17.52 22.5 22 18.02 22 12.5C22 6.98 17.52 2.5 12 2.5ZM13.41 18.59V19.17C13.41 19.9 12.81 20.5 12.08 20.5H12.07C11.34 20.5 10.74 19.9 10.74 19.17V18.57C9.41 18.29 8.23 17.56 7.73 16.33C7.5 15.78 7.93 15.17 8.53 15.17H8.77C9.14 15.17 9.44 15.42 9.58 15.77C9.87 16.52 10.63 17.04 12.09 17.04C14.05 17.04 14.49 16.06 14.49 15.45C14.49 14.62 14.05 13.84 11.82 13.31C9.34 12.71 7.64 11.69 7.64 9.64C7.64 7.92 9.03 6.8 10.75 6.43V5.83C10.75 5.1 11.35 4.5 12.08 4.5H12.09C12.82 4.5 13.42 5.1 13.42 5.83V6.45C14.8 6.79 15.67 7.65 16.05 8.71C16.25 9.26 15.83 9.84 15.24 9.84H14.98C14.61 9.84 14.31 9.58 14.21 9.22C13.98 8.46 13.35 7.97 12.09 7.97C10.59 7.97 9.69 8.65 9.69 9.61C9.69 10.45 10.34 11 12.36 11.52C14.38 12.04 16.54 12.91 16.54 15.43C16.52 17.26 15.15 18.26 13.41 18.59Z" fill="white"/>
</svg>
